<svg width="256" height="256" viewBox="0 0 256 256" fill="none" xmlns="http://www.w3.org/2000/svg">
<rect width="256" height="256" rx="42.6667" fill="#DF5440"/>
<path d="M87.0069 78.4321L172.234 53.5611L172.234 53.5611C196.129 46.5881 208.077 43.1017 210.843 48.0941C213.609 53.0866 204.317 61.367 185.734 77.9279L153.845 106.347C146.512 112.882 142.846 116.15 143.738 119.537C144.63 122.925 149.443 123.966 159.07 126.049C170.467 128.514 176.165 129.747 177.353 133.831C178.542 137.916 174.405 142.001 166.132 150.173L128.971 186.878C114.297 201.372 106.96 208.619 102.485 206.586C101.963 206.348 101.47 206.048 101.02 205.693C97.1598 202.65 100.234 192.806 106.382 173.118C108.3 166.976 109.259 163.905 107.908 161.695C107.739 161.418 107.546 161.156 107.333 160.912C105.626 158.963 102.409 158.963 95.9739 158.963H91.6315C76.3852 158.963 68.7621 158.963 64.4942 154.069C60.2262 149.174 61.2642 141.622 63.34 126.518L66.7154 101.958C67.9389 93.0553 68.5507 88.604 71.309 85.4061C74.0673 82.2081 78.3805 80.9494 87.0069 78.4321Z" fill="white"/>
</svg>
